<mxfile host="app.diagrams.net" modified="2023-05-21T13:01:01.930Z" agent="Mozilla/5.0 (Windows NT 10.0; Win64; x64) AppleWebKit/537.36 (KHTML, like Gecko) Chrome/113.0.0.0 Safari/537.36 Edg/113.0.1774.50" etag="81IAZ4uePOpS27VD0sOI" version="21.3.2" type="github">
  <diagram id="R2lEEEUBdFMjLlhIrx00" name="Page-1">
    <mxGraphModel dx="1159" dy="880" grid="0" gridSize="10" guides="1" tooltips="1" connect="1" arrows="1" fold="1" page="1" pageScale="1" pageWidth="850" pageHeight="1100" math="0" shadow="0" extFonts="Permanent Marker^https://fonts.googleapis.com/css?family=Permanent+Marker">
      <root>
        <mxCell id="0" />
        <mxCell id="1" parent="0" />
        <mxCell id="BuVAnKbiThBWOEjmwotV-1" value="医院" style="rounded=0;whiteSpace=wrap;html=1;" vertex="1" parent="1">
          <mxGeometry x="160" y="420" width="90" height="30" as="geometry" />
        </mxCell>
        <mxCell id="BuVAnKbiThBWOEjmwotV-2" value="科室" style="rounded=0;whiteSpace=wrap;html=1;" vertex="1" parent="1">
          <mxGeometry x="160" y="570" width="90" height="30" as="geometry" />
        </mxCell>
        <mxCell id="BuVAnKbiThBWOEjmwotV-3" value="" style="endArrow=none;html=1;rounded=0;exitX=0.5;exitY=0;exitDx=0;exitDy=0;" edge="1" parent="1">
          <mxGeometry width="50" height="50" relative="1" as="geometry">
            <mxPoint x="204.5" y="570" as="sourcePoint" />
            <mxPoint x="204.5" y="520" as="targetPoint" />
          </mxGeometry>
        </mxCell>
        <mxCell id="BuVAnKbiThBWOEjmwotV-20" value="n" style="edgeLabel;html=1;align=center;verticalAlign=middle;resizable=0;points=[];" vertex="1" connectable="0" parent="BuVAnKbiThBWOEjmwotV-3">
          <mxGeometry x="-0.48" y="-1" relative="1" as="geometry">
            <mxPoint x="1" y="-7" as="offset" />
          </mxGeometry>
        </mxCell>
        <mxCell id="BuVAnKbiThBWOEjmwotV-4" value="包括" style="rhombus;whiteSpace=wrap;html=1;" vertex="1" parent="1">
          <mxGeometry x="165" y="490" width="80" height="40" as="geometry" />
        </mxCell>
        <mxCell id="BuVAnKbiThBWOEjmwotV-5" value="" style="endArrow=none;html=1;rounded=0;entryX=0.5;entryY=1;entryDx=0;entryDy=0;exitX=0.5;exitY=0;exitDx=0;exitDy=0;" edge="1" parent="1" source="BuVAnKbiThBWOEjmwotV-4" target="BuVAnKbiThBWOEjmwotV-1">
          <mxGeometry width="50" height="50" relative="1" as="geometry">
            <mxPoint x="270" y="680" as="sourcePoint" />
            <mxPoint x="320" y="630" as="targetPoint" />
          </mxGeometry>
        </mxCell>
        <mxCell id="BuVAnKbiThBWOEjmwotV-16" value="1" style="edgeLabel;html=1;align=center;verticalAlign=middle;resizable=0;points=[];" vertex="1" connectable="0" parent="BuVAnKbiThBWOEjmwotV-5">
          <mxGeometry x="0.44" y="-1" relative="1" as="geometry">
            <mxPoint x="-1" y="6" as="offset" />
          </mxGeometry>
        </mxCell>
        <mxCell id="BuVAnKbiThBWOEjmwotV-6" value="排班" style="rounded=0;whiteSpace=wrap;html=1;" vertex="1" parent="1">
          <mxGeometry x="160" y="720" width="90" height="30" as="geometry" />
        </mxCell>
        <mxCell id="BuVAnKbiThBWOEjmwotV-11" value="用户" style="rounded=0;whiteSpace=wrap;html=1;" vertex="1" parent="1">
          <mxGeometry x="410" y="420" width="90" height="30" as="geometry" />
        </mxCell>
        <mxCell id="BuVAnKbiThBWOEjmwotV-12" value="就诊人" style="rounded=0;whiteSpace=wrap;html=1;" vertex="1" parent="1">
          <mxGeometry x="410" y="570" width="90" height="30" as="geometry" />
        </mxCell>
        <mxCell id="BuVAnKbiThBWOEjmwotV-13" value="" style="endArrow=none;html=1;rounded=0;exitX=0.5;exitY=0;exitDx=0;exitDy=0;" edge="1" parent="1" source="BuVAnKbiThBWOEjmwotV-6" target="BuVAnKbiThBWOEjmwotV-14">
          <mxGeometry width="50" height="50" relative="1" as="geometry">
            <mxPoint x="205" y="700" as="sourcePoint" />
            <mxPoint x="205" y="580" as="targetPoint" />
          </mxGeometry>
        </mxCell>
        <mxCell id="BuVAnKbiThBWOEjmwotV-18" value="n" style="edgeLabel;html=1;align=center;verticalAlign=middle;resizable=0;points=[];" vertex="1" connectable="0" parent="BuVAnKbiThBWOEjmwotV-13">
          <mxGeometry x="0.44" y="1" relative="1" as="geometry">
            <mxPoint x="1" y="6" as="offset" />
          </mxGeometry>
        </mxCell>
        <mxCell id="BuVAnKbiThBWOEjmwotV-14" value="包括" style="rhombus;whiteSpace=wrap;html=1;" vertex="1" parent="1">
          <mxGeometry x="165" y="640" width="80" height="40" as="geometry" />
        </mxCell>
        <mxCell id="BuVAnKbiThBWOEjmwotV-15" value="" style="endArrow=none;html=1;rounded=0;entryX=0.5;entryY=1;entryDx=0;entryDy=0;exitX=0.5;exitY=0;exitDx=0;exitDy=0;" edge="1" parent="1" source="BuVAnKbiThBWOEjmwotV-14" target="BuVAnKbiThBWOEjmwotV-2">
          <mxGeometry width="50" height="50" relative="1" as="geometry">
            <mxPoint x="270" y="810" as="sourcePoint" />
            <mxPoint x="205" y="580" as="targetPoint" />
          </mxGeometry>
        </mxCell>
        <mxCell id="BuVAnKbiThBWOEjmwotV-17" value="1" style="edgeLabel;html=1;align=center;verticalAlign=middle;resizable=0;points=[];" vertex="1" connectable="0" parent="BuVAnKbiThBWOEjmwotV-15">
          <mxGeometry x="-0.44" relative="1" as="geometry">
            <mxPoint as="offset" />
          </mxGeometry>
        </mxCell>
        <mxCell id="BuVAnKbiThBWOEjmwotV-23" value="" style="endArrow=none;html=1;rounded=0;exitX=0.5;exitY=0;exitDx=0;exitDy=0;" edge="1" parent="1" source="BuVAnKbiThBWOEjmwotV-12">
          <mxGeometry width="50" height="50" relative="1" as="geometry">
            <mxPoint x="454.5" y="570" as="sourcePoint" />
            <mxPoint x="454.5" y="520" as="targetPoint" />
          </mxGeometry>
        </mxCell>
        <mxCell id="BuVAnKbiThBWOEjmwotV-24" value="n" style="edgeLabel;html=1;align=center;verticalAlign=middle;resizable=0;points=[];" vertex="1" connectable="0" parent="BuVAnKbiThBWOEjmwotV-23">
          <mxGeometry x="-0.48" y="-1" relative="1" as="geometry">
            <mxPoint x="1" y="-7" as="offset" />
          </mxGeometry>
        </mxCell>
        <mxCell id="BuVAnKbiThBWOEjmwotV-25" value="创建" style="rhombus;whiteSpace=wrap;html=1;" vertex="1" parent="1">
          <mxGeometry x="415" y="490" width="80" height="40" as="geometry" />
        </mxCell>
        <mxCell id="BuVAnKbiThBWOEjmwotV-26" value="" style="endArrow=none;html=1;rounded=0;entryX=0.5;entryY=1;entryDx=0;entryDy=0;exitX=0.5;exitY=0;exitDx=0;exitDy=0;" edge="1" parent="1" source="BuVAnKbiThBWOEjmwotV-25" target="BuVAnKbiThBWOEjmwotV-11">
          <mxGeometry width="50" height="50" relative="1" as="geometry">
            <mxPoint x="520" y="680" as="sourcePoint" />
            <mxPoint x="455" y="450" as="targetPoint" />
          </mxGeometry>
        </mxCell>
        <mxCell id="BuVAnKbiThBWOEjmwotV-27" value="1" style="edgeLabel;html=1;align=center;verticalAlign=middle;resizable=0;points=[];" vertex="1" connectable="0" parent="BuVAnKbiThBWOEjmwotV-26">
          <mxGeometry x="0.44" y="-1" relative="1" as="geometry">
            <mxPoint x="-1" y="6" as="offset" />
          </mxGeometry>
        </mxCell>
        <mxCell id="BuVAnKbiThBWOEjmwotV-29" value="预约记录" style="rounded=0;whiteSpace=wrap;html=1;" vertex="1" parent="1">
          <mxGeometry x="410" y="720" width="90" height="30" as="geometry" />
        </mxCell>
        <mxCell id="BuVAnKbiThBWOEjmwotV-30" value="" style="endArrow=none;html=1;rounded=0;exitX=0.5;exitY=0;exitDx=0;exitDy=0;" edge="1" parent="1" source="BuVAnKbiThBWOEjmwotV-29" target="BuVAnKbiThBWOEjmwotV-31">
          <mxGeometry width="50" height="50" relative="1" as="geometry">
            <mxPoint x="520" y="800" as="sourcePoint" />
            <mxPoint x="455" y="570" as="targetPoint" />
          </mxGeometry>
        </mxCell>
        <mxCell id="BuVAnKbiThBWOEjmwotV-46" value="n" style="edgeLabel;html=1;align=center;verticalAlign=middle;resizable=0;points=[];" vertex="1" connectable="0" parent="BuVAnKbiThBWOEjmwotV-30">
          <mxGeometry x="-0.44" y="-2" relative="1" as="geometry">
            <mxPoint x="-2" y="-6" as="offset" />
          </mxGeometry>
        </mxCell>
        <mxCell id="BuVAnKbiThBWOEjmwotV-31" value="进行" style="rhombus;whiteSpace=wrap;html=1;" vertex="1" parent="1">
          <mxGeometry x="415" y="640" width="80" height="40" as="geometry" />
        </mxCell>
        <mxCell id="BuVAnKbiThBWOEjmwotV-32" value="" style="endArrow=none;html=1;rounded=0;exitX=0.5;exitY=0;exitDx=0;exitDy=0;" edge="1" parent="1" source="BuVAnKbiThBWOEjmwotV-31">
          <mxGeometry width="50" height="50" relative="1" as="geometry">
            <mxPoint x="520" y="800" as="sourcePoint" />
            <mxPoint x="455" y="600" as="targetPoint" />
          </mxGeometry>
        </mxCell>
        <mxCell id="BuVAnKbiThBWOEjmwotV-44" value="1" style="edgeLabel;html=1;align=center;verticalAlign=middle;resizable=0;points=[];" vertex="1" connectable="0" parent="BuVAnKbiThBWOEjmwotV-32">
          <mxGeometry x="-0.48" y="2" relative="1" as="geometry">
            <mxPoint x="2" y="-7" as="offset" />
          </mxGeometry>
        </mxCell>
        <mxCell id="BuVAnKbiThBWOEjmwotV-35" value="订单" style="rounded=0;whiteSpace=wrap;html=1;" vertex="1" parent="1">
          <mxGeometry x="410" y="870" width="90" height="30" as="geometry" />
        </mxCell>
        <mxCell id="BuVAnKbiThBWOEjmwotV-36" value="" style="endArrow=none;html=1;rounded=0;exitX=0.5;exitY=0;exitDx=0;exitDy=0;" edge="1" parent="1" source="BuVAnKbiThBWOEjmwotV-35" target="BuVAnKbiThBWOEjmwotV-37">
          <mxGeometry width="50" height="50" relative="1" as="geometry">
            <mxPoint x="520" y="950" as="sourcePoint" />
            <mxPoint x="455" y="720" as="targetPoint" />
          </mxGeometry>
        </mxCell>
        <mxCell id="BuVAnKbiThBWOEjmwotV-42" value="1" style="edgeLabel;html=1;align=center;verticalAlign=middle;resizable=0;points=[];" vertex="1" connectable="0" parent="BuVAnKbiThBWOEjmwotV-36">
          <mxGeometry x="0.48" y="1" relative="1" as="geometry">
            <mxPoint x="1" y="7" as="offset" />
          </mxGeometry>
        </mxCell>
        <mxCell id="BuVAnKbiThBWOEjmwotV-37" value="生成" style="rhombus;whiteSpace=wrap;html=1;" vertex="1" parent="1">
          <mxGeometry x="415" y="790" width="80" height="40" as="geometry" />
        </mxCell>
        <mxCell id="BuVAnKbiThBWOEjmwotV-38" value="" style="endArrow=none;html=1;rounded=0;exitX=0.5;exitY=0;exitDx=0;exitDy=0;" edge="1" parent="1" source="BuVAnKbiThBWOEjmwotV-37">
          <mxGeometry width="50" height="50" relative="1" as="geometry">
            <mxPoint x="520" y="950" as="sourcePoint" />
            <mxPoint x="455" y="750" as="targetPoint" />
          </mxGeometry>
        </mxCell>
        <mxCell id="BuVAnKbiThBWOEjmwotV-40" value="1" style="edgeLabel;html=1;align=center;verticalAlign=middle;resizable=0;points=[];" vertex="1" connectable="0" parent="BuVAnKbiThBWOEjmwotV-38">
          <mxGeometry x="0.5" relative="1" as="geometry">
            <mxPoint y="10" as="offset" />
          </mxGeometry>
        </mxCell>
        <mxCell id="BuVAnKbiThBWOEjmwotV-49" value="" style="endArrow=none;html=1;rounded=0;entryX=0.4;entryY=1;entryDx=0;entryDy=0;entryPerimeter=0;exitX=0.5;exitY=0;exitDx=0;exitDy=0;" edge="1" parent="1" source="BuVAnKbiThBWOEjmwotV-50" target="BuVAnKbiThBWOEjmwotV-6">
          <mxGeometry width="50" height="50" relative="1" as="geometry">
            <mxPoint x="140" y="790" as="sourcePoint" />
            <mxPoint x="170" y="770" as="targetPoint" />
          </mxGeometry>
        </mxCell>
        <mxCell id="BuVAnKbiThBWOEjmwotV-50" value="时间" style="ellipse;whiteSpace=wrap;html=1;" vertex="1" parent="1">
          <mxGeometry x="80" y="780" width="60" height="30" as="geometry" />
        </mxCell>
        <mxCell id="BuVAnKbiThBWOEjmwotV-51" value="" style="endArrow=none;html=1;rounded=0;exitX=0.5;exitY=0;exitDx=0;exitDy=0;" edge="1" parent="1" source="BuVAnKbiThBWOEjmwotV-52">
          <mxGeometry width="50" height="50" relative="1" as="geometry">
            <mxPoint x="190" y="800" as="sourcePoint" />
            <mxPoint x="200" y="750" as="targetPoint" />
          </mxGeometry>
        </mxCell>
        <mxCell id="BuVAnKbiThBWOEjmwotV-52" value="医生信息" style="ellipse;whiteSpace=wrap;html=1;" vertex="1" parent="1">
          <mxGeometry x="140" y="795" width="60" height="30" as="geometry" />
        </mxCell>
        <mxCell id="BuVAnKbiThBWOEjmwotV-53" value="" style="endArrow=none;html=1;rounded=0;entryX=0.5;entryY=1;entryDx=0;entryDy=0;exitX=0.5;exitY=0;exitDx=0;exitDy=0;" edge="1" parent="1" source="BuVAnKbiThBWOEjmwotV-54" target="BuVAnKbiThBWOEjmwotV-6">
          <mxGeometry width="50" height="50" relative="1" as="geometry">
            <mxPoint x="240" y="800" as="sourcePoint" />
            <mxPoint x="280" y="770" as="targetPoint" />
          </mxGeometry>
        </mxCell>
        <mxCell id="BuVAnKbiThBWOEjmwotV-54" value="预约数" style="ellipse;whiteSpace=wrap;html=1;" vertex="1" parent="1">
          <mxGeometry x="200" y="800" width="60" height="30" as="geometry" />
        </mxCell>
        <mxCell id="BuVAnKbiThBWOEjmwotV-56" value="" style="endArrow=none;html=1;rounded=0;entryX=0.589;entryY=0.967;entryDx=0;entryDy=0;entryPerimeter=0;exitX=0.5;exitY=0;exitDx=0;exitDy=0;" edge="1" parent="1" source="BuVAnKbiThBWOEjmwotV-57" target="BuVAnKbiThBWOEjmwotV-6">
          <mxGeometry width="50" height="50" relative="1" as="geometry">
            <mxPoint x="280" y="790" as="sourcePoint" />
            <mxPoint x="330" y="760" as="targetPoint" />
          </mxGeometry>
        </mxCell>
        <mxCell id="BuVAnKbiThBWOEjmwotV-57" value="挂号费" style="ellipse;whiteSpace=wrap;html=1;" vertex="1" parent="1">
          <mxGeometry x="260" y="795" width="60" height="30" as="geometry" />
        </mxCell>
        <mxCell id="BuVAnKbiThBWOEjmwotV-58" value="" style="endArrow=none;html=1;rounded=0;exitX=0.5;exitY=1;exitDx=0;exitDy=0;" edge="1" parent="1" source="BuVAnKbiThBWOEjmwotV-68">
          <mxGeometry width="50" height="50" relative="1" as="geometry">
            <mxPoint x="490" y="380" as="sourcePoint" />
            <mxPoint x="410" y="430" as="targetPoint" />
            <Array as="points" />
          </mxGeometry>
        </mxCell>
        <mxCell id="BuVAnKbiThBWOEjmwotV-62" value="" style="endArrow=none;html=1;rounded=0;exitX=0;exitY=0.25;exitDx=0;exitDy=0;" edge="1" parent="1" source="BuVAnKbiThBWOEjmwotV-12" target="BuVAnKbiThBWOEjmwotV-63">
          <mxGeometry width="50" height="50" relative="1" as="geometry">
            <mxPoint x="330" y="570" as="sourcePoint" />
            <mxPoint x="370" y="550" as="targetPoint" />
          </mxGeometry>
        </mxCell>
        <mxCell id="BuVAnKbiThBWOEjmwotV-63" value="姓名" style="ellipse;whiteSpace=wrap;html=1;" vertex="1" parent="1">
          <mxGeometry x="320" y="540" width="60" height="30" as="geometry" />
        </mxCell>
        <mxCell id="BuVAnKbiThBWOEjmwotV-64" value="" style="endArrow=none;html=1;rounded=0;entryX=0;entryY=0.5;entryDx=0;entryDy=0;exitX=1;exitY=0.5;exitDx=0;exitDy=0;" edge="1" parent="1" source="BuVAnKbiThBWOEjmwotV-65" target="BuVAnKbiThBWOEjmwotV-12">
          <mxGeometry width="50" height="50" relative="1" as="geometry">
            <mxPoint x="370" y="600" as="sourcePoint" />
            <mxPoint x="400" y="590" as="targetPoint" />
          </mxGeometry>
        </mxCell>
        <mxCell id="BuVAnKbiThBWOEjmwotV-65" value="身份证" style="ellipse;whiteSpace=wrap;html=1;" vertex="1" parent="1">
          <mxGeometry x="310" y="570" width="60" height="30" as="geometry" />
        </mxCell>
        <mxCell id="BuVAnKbiThBWOEjmwotV-66" value="" style="endArrow=none;html=1;rounded=0;exitX=1;exitY=0.5;exitDx=0;exitDy=0;" edge="1" parent="1" source="BuVAnKbiThBWOEjmwotV-67">
          <mxGeometry width="50" height="50" relative="1" as="geometry">
            <mxPoint x="370" y="620" as="sourcePoint" />
            <mxPoint x="410" y="590" as="targetPoint" />
          </mxGeometry>
        </mxCell>
        <mxCell id="BuVAnKbiThBWOEjmwotV-67" value="地址" style="ellipse;whiteSpace=wrap;html=1;" vertex="1" parent="1">
          <mxGeometry x="310" y="600" width="60" height="30" as="geometry" />
        </mxCell>
        <mxCell id="BuVAnKbiThBWOEjmwotV-68" value="昵称" style="ellipse;whiteSpace=wrap;html=1;" vertex="1" parent="1">
          <mxGeometry x="290" y="420" width="60" height="30" as="geometry" />
        </mxCell>
        <mxCell id="BuVAnKbiThBWOEjmwotV-69" value="" style="endArrow=none;html=1;rounded=0;entryX=1;entryY=0.5;entryDx=0;entryDy=0;" edge="1" parent="1" target="BuVAnKbiThBWOEjmwotV-70">
          <mxGeometry width="50" height="50" relative="1" as="geometry">
            <mxPoint x="410" y="440" as="sourcePoint" />
            <mxPoint x="440" y="370" as="targetPoint" />
          </mxGeometry>
        </mxCell>
        <mxCell id="BuVAnKbiThBWOEjmwotV-70" value="邮箱" style="ellipse;whiteSpace=wrap;html=1;" vertex="1" parent="1">
          <mxGeometry x="300" y="460" width="60" height="30" as="geometry" />
        </mxCell>
        <mxCell id="BuVAnKbiThBWOEjmwotV-71" value="" style="endArrow=none;html=1;rounded=0;entryX=1;entryY=1;entryDx=0;entryDy=0;exitX=0;exitY=0;exitDx=0;exitDy=0;" edge="1" parent="1" source="BuVAnKbiThBWOEjmwotV-11" target="BuVAnKbiThBWOEjmwotV-72">
          <mxGeometry width="50" height="50" relative="1" as="geometry">
            <mxPoint x="450" y="420" as="sourcePoint" />
            <mxPoint x="390" y="390" as="targetPoint" />
          </mxGeometry>
        </mxCell>
        <mxCell id="BuVAnKbiThBWOEjmwotV-72" value="身份信息" style="ellipse;whiteSpace=wrap;html=1;" vertex="1" parent="1">
          <mxGeometry x="290" y="380" width="60" height="30" as="geometry" />
        </mxCell>
        <mxCell id="BuVAnKbiThBWOEjmwotV-73" value="" style="endArrow=none;html=1;rounded=0;exitX=0;exitY=0.5;exitDx=0;exitDy=0;entryX=1;entryY=1;entryDx=0;entryDy=0;" edge="1" parent="1" source="BuVAnKbiThBWOEjmwotV-35" target="BuVAnKbiThBWOEjmwotV-75">
          <mxGeometry width="50" height="50" relative="1" as="geometry">
            <mxPoint x="500" y="890" as="sourcePoint" />
            <mxPoint x="360" y="860" as="targetPoint" />
          </mxGeometry>
        </mxCell>
        <mxCell id="BuVAnKbiThBWOEjmwotV-75" value="订单号" style="ellipse;whiteSpace=wrap;html=1;" vertex="1" parent="1">
          <mxGeometry x="310" y="830" width="60" height="30" as="geometry" />
        </mxCell>
        <mxCell id="BuVAnKbiThBWOEjmwotV-76" value="" style="endArrow=none;html=1;rounded=0;entryX=0;entryY=0.5;entryDx=0;entryDy=0;exitX=1;exitY=0.5;exitDx=0;exitDy=0;" edge="1" parent="1" source="BuVAnKbiThBWOEjmwotV-77" target="BuVAnKbiThBWOEjmwotV-35">
          <mxGeometry width="50" height="50" relative="1" as="geometry">
            <mxPoint x="360" y="880" as="sourcePoint" />
            <mxPoint x="360" y="890" as="targetPoint" />
          </mxGeometry>
        </mxCell>
        <mxCell id="BuVAnKbiThBWOEjmwotV-77" value="时间" style="ellipse;whiteSpace=wrap;html=1;" vertex="1" parent="1">
          <mxGeometry x="300" y="860" width="60" height="30" as="geometry" />
        </mxCell>
        <mxCell id="BuVAnKbiThBWOEjmwotV-78" value="" style="endArrow=none;html=1;rounded=0;entryX=0;entryY=0.5;entryDx=0;entryDy=0;exitX=1;exitY=0.5;exitDx=0;exitDy=0;" edge="1" parent="1" source="BuVAnKbiThBWOEjmwotV-80" target="BuVAnKbiThBWOEjmwotV-35">
          <mxGeometry width="50" height="50" relative="1" as="geometry">
            <mxPoint x="360" y="900" as="sourcePoint" />
            <mxPoint x="390" y="910" as="targetPoint" />
          </mxGeometry>
        </mxCell>
        <mxCell id="BuVAnKbiThBWOEjmwotV-80" value="地点" style="ellipse;whiteSpace=wrap;html=1;" vertex="1" parent="1">
          <mxGeometry x="300" y="890" width="60" height="30" as="geometry" />
        </mxCell>
        <mxCell id="BuVAnKbiThBWOEjmwotV-81" value="" style="endArrow=none;html=1;rounded=0;exitX=0;exitY=0.5;exitDx=0;exitDy=0;entryX=0.717;entryY=0.933;entryDx=0;entryDy=0;entryPerimeter=0;" edge="1" parent="1" source="BuVAnKbiThBWOEjmwotV-35" target="BuVAnKbiThBWOEjmwotV-82">
          <mxGeometry width="50" height="50" relative="1" as="geometry">
            <mxPoint x="400" y="890" as="sourcePoint" />
            <mxPoint x="400" y="830" as="targetPoint" />
          </mxGeometry>
        </mxCell>
        <mxCell id="BuVAnKbiThBWOEjmwotV-82" value="费用" style="ellipse;whiteSpace=wrap;html=1;" vertex="1" parent="1">
          <mxGeometry x="340" y="800" width="60" height="30" as="geometry" />
        </mxCell>
        <mxCell id="BuVAnKbiThBWOEjmwotV-83" value="" style="endArrow=none;html=1;rounded=0;entryX=0;entryY=0.5;entryDx=0;entryDy=0;" edge="1" parent="1" target="BuVAnKbiThBWOEjmwotV-84">
          <mxGeometry width="50" height="50" relative="1" as="geometry">
            <mxPoint x="250" y="734.5" as="sourcePoint" />
            <mxPoint x="300" y="735" as="targetPoint" />
          </mxGeometry>
        </mxCell>
        <mxCell id="BuVAnKbiThBWOEjmwotV-84" value="改变" style="rhombus;whiteSpace=wrap;html=1;" vertex="1" parent="1">
          <mxGeometry x="290" y="720" width="80" height="30" as="geometry" />
        </mxCell>
        <mxCell id="BuVAnKbiThBWOEjmwotV-86" value="" style="endArrow=none;html=1;rounded=0;exitX=1;exitY=0.5;exitDx=0;exitDy=0;entryX=0;entryY=0.5;entryDx=0;entryDy=0;" edge="1" parent="1" source="BuVAnKbiThBWOEjmwotV-84" target="BuVAnKbiThBWOEjmwotV-29">
          <mxGeometry width="50" height="50" relative="1" as="geometry">
            <mxPoint x="370" y="730" as="sourcePoint" />
            <mxPoint x="420" y="680" as="targetPoint" />
          </mxGeometry>
        </mxCell>
      </root>
    </mxGraphModel>
  </diagram>
</mxfile>
